<svg xmlns="http://www.w3.org/2000/svg" width="210.93" height="67" viewBox="0 0 210.93 67">
  <g id="Group_1229" data-name="Group 1229" transform="translate(-13439.07 440)">
    <g id="Group_1228" data-name="Group 1228">
      <text id="SwitchOff-Logo" transform="translate(13508 -410)" fill="#ff5a5f" font-size="29" font-family="Poppins-SemiBold, Poppins" font-weight="600"><tspan x="0" y="0">SwitchOff</tspan></text>
      <text id="Control_Panel" data-name="Control Panel" transform="translate(13508 -380)" fill="#484848" font-size="20" font-family="Poppins-SemiBold, Poppins" font-weight="600" letter-spacing="0.019em"><tspan x="0" y="0">Control Panel</tspan></text>
      <path id="Path_206" data-name="Path 206" d="M19.324,29a6.076,6.076,0,1,1-6.076-6.076A6.076,6.076,0,0,1,19.324,29Z" transform="translate(13439.71 -416.331)" fill="#ff5a5f"/>
      <path id="Path_207" data-name="Path 207" d="M49.595,19.125H17.335a13.888,13.888,0,1,0,0,27.775h32.26a13.888,13.888,0,1,0,0-27.775ZM17.263,42.271a9.258,9.258,0,1,1,9.258-9.258A9.267,9.267,0,0,1,17.263,42.271Z" transform="translate(13435.695 -420.346)" fill="#484848"/>
      <path id="Path_208" data-name="Path 208" d="M35.074,13.248A6.076,6.076,0,1,1,29,7.172a6.076,6.076,0,0,1,6.076,6.076Z" transform="translate(13456.364 -432.985)" fill="#484848"/>
      <path id="Path_209" data-name="Path 209" d="M17.335,31.15h32.26a13.888,13.888,0,1,0,0-27.775H17.335a13.888,13.888,0,1,0,0,27.775ZM49.667,8a9.258,9.258,0,1,1-9.258,9.258A9.267,9.267,0,0,1,49.667,8Z" transform="translate(13435.695 -437)" fill="#ff5a5f"/>
    </g>
  </g>
</svg>
